<svg width="91" height="48" viewBox="0 0 91 48" fill="none" xmlns="http://www.w3.org/2000/svg">
<path d="M51.5859 20.4181H54.0732C55.0898 20.4181 55.9117 21.2495 55.9117 22.2536V36.829H63.3738V20.321C63.3738 16.1859 60.0105 12.8713 55.9117 12.8713H44.1237V25.9244C44.1237 28.1809 42.2312 30.0163 39.9277 29.9732C37.7215 29.876 35.9695 28.0406 35.9695 25.8381V12.8281H28.4209V25.8812C28.4209 32.2728 33.6227 37.4228 40.025 37.4228C46.4273 37.4228 51.5859 32.2297 51.5859 25.8812V20.4074V20.4181Z" fill="white"/>
<path d="M59.7828 9.93289C62.5303 9.93289 64.7576 7.70934 64.7576 4.96645C64.7576 2.22355 62.5303 0 59.7828 0C57.0354 0 54.8081 2.22355 54.8081 4.96645C54.8081 7.70934 57.0354 9.93289 59.7828 9.93289Z" fill="white"/>
<path d="M74.6963 36.8713V23.7642C74.6963 21.5078 76.5348 19.7155 78.7518 19.7155C80.9688 19.7155 82.8073 21.5509 82.8073 23.7642V36.8713H90.3559V23.7642C90.3559 17.3726 85.154 12.2227 78.7518 12.2227C72.3495 12.2227 67.1909 17.4158 67.1909 23.7642V36.8713H74.6963Z" fill="white"/>
<path d="M12.6856 12.1876C5.73176 12.1876 0 17.899 0 24.8521C0 31.8051 5.67768 37.5165 12.6856 37.5165C14.5349 37.5165 16.3842 36.9443 17.8658 36.1129V48H25.3711V24.8521C25.3711 17.899 19.6394 12.1876 12.6856 12.1876ZM12.6856 30.3475C9.64666 30.3475 7.18092 27.8859 7.18092 24.8521C7.18092 21.8182 9.64666 19.3566 12.6856 19.3566C15.7245 19.3566 18.1902 21.8182 18.1902 24.8521C18.1902 27.8859 15.7245 30.3475 12.6856 30.3475Z" fill="white"/>
</svg>
