<svg width="17" height="17" viewBox="0 0 17 17" fill="none" xmlns="http://www.w3.org/2000/svg">
<path d="M6.47046 0.100342C9.98855 0.10047 12.8406 2.95233 12.8406 6.47046C12.8405 7.78117 12.4443 8.99958 11.7654 10.0125C11.7111 10.0934 11.6731 10.1469 11.6482 10.1804C11.6357 10.1972 11.6262 10.2096 11.6199 10.2175C11.6169 10.2212 11.6148 10.2242 11.613 10.2263L11.6111 10.2273C11.5362 10.3288 11.5471 10.4885 11.6414 10.5828L16.0808 15.0222C16.373 15.3146 16.3731 15.7885 16.0808 16.0808C15.7885 16.3731 15.3146 16.373 15.0222 16.0808L10.5828 11.6414C10.4898 11.5484 10.3263 11.5378 10.2234 11.615C10.2212 11.6168 10.2182 11.6189 10.2146 11.6218C10.2061 11.6285 10.1932 11.638 10.1755 11.6511C10.14 11.6775 10.0841 11.7176 10.0007 11.7732C8.9902 12.4473 7.77609 12.8405 6.47046 12.8406C2.95233 12.8406 0.10047 9.98855 0.100342 6.47046C0.100342 2.95226 2.95226 0.100342 6.47046 0.100342ZM6.47046 1.59741C3.77919 1.59741 1.59741 3.77919 1.59741 6.47046C1.59754 9.16162 3.77927 11.3435 6.47046 11.3435C9.16154 11.3434 11.3434 9.16154 11.3435 6.47046C11.3435 3.77927 9.16162 1.59754 6.47046 1.59741Z" fill="#B5B6B7" stroke="#B5B6B7" stroke-width="0.2"/>
</svg>
